<?xml version="1.0" standalone="no"?>
<!DOCTYPE svg PUBLIC "-//W3C//DTD SVG 20010904//EN"
 "http://www.w3.org/TR/2001/REC-SVG-20010904/DTD/svg10.dtd">
<svg version="1.0" xmlns="http://www.w3.org/2000/svg"
 width="1200.000000pt" height="1200.000000pt" viewBox="0 0 1200.000000 1200.000000"
 preserveAspectRatio="xMidYMid meet">
<metadata>
Created by potrace 1.11, written by Peter Selinger 2001-2013
</metadata>
<g transform="translate(0.000000,1200.000000) scale(0.100000,-0.100000)"
fill="#000000" stroke="none">
<path d="M3406 10029 c2 -4 -18 -6 -44 -5 -26 1 -53 -2 -61 -8 -7 -6 -72 -12
-145 -13 -214 -6 -246 -8 -246 -15 0 -4 -38 -6 -84 -5 -46 1 -83 -1 -81 -4 4
-6 -31 -10 -107 -11 -26 -1 -45 -5 -43 -9 3 -4 -12 -7 -32 -7 -21 0 -40 -1
-43 -2 -3 -1 -24 -3 -47 -4 -23 -1 -47 -7 -55 -13 -7 -7 -41 -13 -76 -15 -34
-1 -62 -7 -62 -11 0 -5 -29 -7 -65 -4 -36 3 -63 2 -60 -3 3 -4 -15 -7 -40 -6
-27 2 -42 -1 -38 -7 4 -6 -8 -7 -31 -3 -24 5 -36 3 -36 -5 0 -7 -10 -9 -25 -7
-14 3 -30 0 -35 -7 -9 -11 -96 -23 -218 -29 -13 -1 -27 -8 -31 -15 -5 -7 -15
-11 -22 -9 -8 3 -19 -1 -25 -7 -7 -6 -35 -10 -63 -9 -28 1 -51 -2 -51 -6 0 -5
-25 -8 -55 -7 -39 2 -55 -1 -55 -10 0 -7 -4 -13 -10 -13 -5 0 -10 -7 -10 -15
0 -15 -6 -17 -47 -18 -13 0 -23 -3 -23 -8 0 -5 -7 -6 -15 -3 -8 4 -17 -1 -21
-10 -3 -9 -10 -13 -15 -10 -5 3 -9 1 -9 -4 0 -10 -38 -24 -79 -28 -13 -2 -32
-11 -43 -21 -11 -10 -29 -17 -39 -15 -14 2 -17 -1 -12 -14 5 -14 2 -16 -15
-12 -16 4 -22 2 -22 -9 0 -10 -6 -13 -15 -9 -9 3 -18 -1 -21 -9 -3 -7 -12 -11
-20 -8 -8 3 -32 -11 -54 -31 -41 -37 -57 -46 -44 -23 6 9 5 9 -8 0 -8 -7 -18
-9 -22 -5 -4 4 -7 3 -6 -3 4 -20 0 -36 -8 -31 -5 3 -22 -7 -38 -23 -16 -15
-48 -38 -71 -51 -23 -13 -40 -27 -37 -32 5 -7 -10 -12 -28 -9 -5 0 -8 -3 -8
-8 0 -5 -13 -14 -30 -21 -16 -7 -27 -16 -24 -21 3 -5 -4 -9 -15 -9 -12 0 -20
-6 -19 -12 2 -7 -3 -12 -9 -10 -7 1 -13 -5 -13 -14 0 -8 -4 -13 -9 -9 -5 3
-12 -4 -16 -15 -4 -11 -10 -18 -15 -15 -4 3 -11 -2 -14 -11 -3 -8 -10 -13 -15
-10 -4 3 -27 -13 -50 -35 -24 -24 -46 -37 -52 -33 -8 4 -9 3 -5 -4 4 -7 1 -12
-9 -12 -8 0 -20 -12 -25 -26 -6 -15 -14 -22 -21 -18 -7 4 -18 -1 -25 -10 -7
-10 -16 -17 -21 -17 -16 0 -62 -42 -56 -52 4 -6 0 -8 -10 -4 -10 4 -21 -3 -31
-18 -11 -16 -22 -22 -33 -18 -11 4 -14 3 -9 -5 4 -7 2 -12 -4 -12 -6 0 -9 -4
-6 -9 7 -11 -55 -42 -69 -34 -5 4 -7 3 -4 -1 9 -10 -42 -61 -61 -61 -13 0 -15
-414 -18 -3653 -1 -2008 0 -3652 2 -3652 2 0 27 -4 55 -10 29 -5 74 -10 101
-11 28 -1 50 -6 50 -11 0 -5 23 -6 52 -2 33 5 49 3 45 -3 -4 -6 7 -9 28 -8 19
2 35 0 35 -4 0 -7 15 -11 53 -12 9 0 17 -5 17 -11 0 -5 6 -8 14 -5 8 3 17 3
20 0 3 -3 77 -7 165 -9 94 -1 169 -7 181 -14 44 -23 94 -27 408 -29 78 0 148
-3 154 -7 20 -13 132 -11 164 1 17 7 49 12 72 11 22 -1 39 1 36 5 -4 7 97 29
146 32 14 1 30 5 36 9 5 4 36 5 67 4 32 -2 60 0 62 4 3 4 17 5 31 2 20 -4 25
-2 19 8 -5 9 -2 10 14 5 12 -3 21 -2 21 4 0 5 12 8 26 5 17 -3 23 -1 19 7 -10
15 37 1 47 -15 5 -6 8 -7 8 -1 1 6 5 0 10 -12 5 -13 17 -23 25 -23 9 0 13 -4
10 -10 -6 -9 8 -14 28 -11 4 0 7 -4 7 -11 0 -6 3 -8 7 -5 3 4 19 -7 35 -23 15
-17 33 -30 40 -30 6 0 9 -3 5 -6 -3 -3 6 -17 21 -31 15 -13 21 -22 15 -18 -7
3 -13 4 -13 0 0 -3 10 -9 22 -14 13 -5 23 -17 23 -27 0 -11 6 -18 13 -16 6 1
11 -4 10 -10 -2 -7 3 -12 11 -10 8 2 11 -3 8 -12 -4 -9 -2 -15 2 -13 5 1 10
-1 11 -5 2 -14 63 -73 74 -73 6 0 10 -9 9 -19 -1 -13 4 -16 18 -13 17 5 24 -4
20 -26 -1 -5 3 -6 7 -3 5 3 17 -3 27 -14 10 -11 21 -17 26 -15 4 3 10 1 14 -5
4 -6 11 -8 16 -5 5 4 9 2 9 -3 0 -5 6 -9 13 -10 28 -2 48 -9 58 -19 6 -6 18
-9 27 -6 11 5 13 3 7 -7 -5 -9 -4 -11 4 -6 14 9 53 -2 47 -13 -3 -4 0 -8 7 -9
24 -2 47 -8 53 -14 3 -4 13 -4 22 -1 11 5 13 3 7 -6 -5 -10 -2 -11 13 -7 12 4
22 1 25 -8 4 -9 16 -13 33 -11 15 1 41 -6 58 -16 16 -10 34 -15 39 -12 5 3 12
0 16 -6 4 -6 30 -13 57 -14 27 -2 55 -6 62 -11 7 -4 19 -5 27 -2 8 3 17 1 20
-4 4 -6 17 -7 30 -4 12 3 26 1 29 -5 4 -6 18 -11 32 -11 13 0 24 -5 24 -11 0
-5 4 -8 9 -5 5 3 14 -1 21 -9 7 -8 16 -12 21 -9 5 3 18 0 30 -7 15 -8 19 -8
15 0 -9 15 42 -7 68 -28 15 -13 46 -16 175 -14 174 1 202 4 195 15 -5 7 13 12
44 11 6 -1 12 3 12 8 0 5 7 5 17 2 12 -5 14 -3 8 7 -6 10 -4 12 8 7 10 -3 17
-3 17 2 0 11 46 24 89 25 19 1 36 6 38 13 2 7 11 9 20 6 11 -4 14 -2 9 5 -4 6
1 11 11 11 10 0 27 2 38 5 11 2 23 5 28 5 4 1 7 7 7 15 0 13 60 32 87 27 6 -1
15 4 19 10 4 8 3 9 -4 5 -7 -4 -12 -5 -12 -2 0 5 106 62 127 69 5 1 7 5 6 9
-2 4 6 5 17 3 13 -2 20 2 20 11 0 8 4 13 9 10 5 -3 11 1 15 9 3 8 12 15 21 15
8 0 15 6 15 14 0 7 12 21 26 31 14 9 23 19 20 23 -4 3 8 22 26 41 18 19 26 31
18 26 -9 -6 -8 -2 2 7 11 9 19 18 19 20 -1 17 13 47 20 42 10 -6 12 7 9 44 -1
12 3 22 8 22 8 0 17 26 23 68 0 4 6 13 12 20 6 8 13 35 15 60 2 26 9 50 15 54
7 4 8 8 3 8 -5 0 -4 6 1 12 6 7 9 29 7 48 -5 57 15 67 138 73 25 1 44 6 41 11
-4 5 3 7 15 4 12 -4 24 -3 27 2 5 8 111 21 204 25 30 1 57 8 61 15 4 7 15 10
24 7 9 -4 16 -1 16 4 0 6 9 9 20 6 13 -3 18 -1 13 6 -4 6 2 8 15 5 12 -4 22
-2 22 4 0 5 4 7 9 4 5 -3 12 1 15 10 4 10 14 14 26 11 11 -3 20 -1 20 3 0 5 9
7 20 5 11 -2 18 0 15 6 -6 8 22 14 52 10 6 -1 15 4 19 10 5 8 3 9 -6 4 -9 -6
-11 -4 -5 4 4 7 16 10 27 8 12 -4 26 2 36 14 9 10 22 19 30 19 7 0 10 5 7 10
-3 5 -1 11 4 11 6 1 16 2 22 3 6 0 16 9 23 18 7 10 15 16 17 14 2 -2 10 2 17
10 7 8 10 14 7 14 -3 0 13 17 35 39 22 21 40 44 40 50 0 6 4 11 10 11 5 0 7 6
4 13 -3 8 2 20 11 27 8 7 15 19 15 27 0 8 4 11 10 8 6 -3 7 1 4 9 -3 9 -1 16
6 16 6 0 8 5 5 10 -3 6 -2 10 4 10 6 0 15 10 22 21 8 16 8 20 -1 14 -9 -5 -8
-1 1 16 7 13 14 29 15 34 5 21 27 81 38 105 7 14 11 49 10 77 -1 29 2 51 6 48
8 -5 6 53 -3 75 -3 8 -6 40 -6 70 0 30 -2 69 -6 85 -7 34 -15 84 -17 103 -1 6
-5 12 -10 12 -5 0 -7 14 -4 30 2 19 0 28 -6 24 -6 -4 -9 5 -8 22 1 16 1 31 0
34 -1 3 -3 20 -4 39 -2 19 -9 39 -17 45 -8 6 -15 20 -17 31 -5 40 -9 49 -20
53 -7 2 -9 8 -6 13 3 6 1 16 -6 23 -11 14 -21 48 -23 78 -1 9 -5 14 -9 12 -4
-3 -8 1 -8 9 0 8 -9 26 -21 41 -11 14 -17 31 -13 37 5 8 3 9 -6 4 -10 -6 -12
-4 -7 8 3 9 1 19 -5 23 -7 5 -8 2 -4 -7 4 -8 -2 -3 -13 11 -11 14 -19 30 -17
36 2 6 -5 16 -15 23 -11 6 -17 16 -14 21 3 6 1 10 -5 10 -6 0 -8 5 -5 10 4 6
3 9 -2 8 -4 -2 -9 2 -11 7 -2 6 -12 13 -23 17 -11 4 -18 12 -15 16 6 10 -18
47 -31 47 -17 1 -73 60 -73 77 0 12 -8 18 -21 18 -11 0 -18 3 -16 8 2 4 -4 15
-15 25 -10 9 -18 14 -18 11 0 -3 -8 2 -17 12 -12 11 -18 34 -18 61 -1 25 -6
48 -12 51 -12 8 -12 36 0 48 3 3 32 8 64 9 32 2 63 4 68 5 6 1 15 1 20 0 6 -2
30 -3 55 -4 146 -6 151 -6 144 -18 -5 -7 -3 -8 6 -3 7 4 15 3 19 -3 4 -6 24
-13 46 -16 22 -2 42 -5 45 -6 3 -2 8 -2 13 -1 4 0 7 -4 7 -10 0 -6 9 -8 21 -4
14 5 19 3 15 -3 -4 -6 5 -9 24 -6 17 3 30 1 30 -5 0 -6 7 -8 15 -5 8 4 15 1
15 -5 0 -6 6 -8 14 -5 7 3 20 -2 29 -10 8 -8 17 -12 21 -9 3 4 6 1 6 -5 0 -6
7 -9 17 -5 12 5 14 3 8 -7 -6 -10 -3 -12 13 -8 12 3 29 0 39 -7 9 -7 23 -11
30 -8 7 3 13 0 13 -6 0 -6 3 -10 8 -10 21 4 32 -2 26 -13 -4 -7 -4 -10 1 -6 4
4 20 1 36 -8 16 -8 29 -12 29 -8 0 4 7 1 15 -6 8 -7 15 -9 15 -6 0 4 10 -2 22
-13 11 -11 25 -18 30 -15 4 3 8 0 8 -7 0 -7 3 -9 6 -6 4 3 16 1 28 -5 11 -7
24 -12 28 -13 3 0 9 -3 13 -7 4 -4 14 -4 23 -1 9 4 13 2 9 -4 -4 -6 5 -14 21
-18 15 -3 36 -14 46 -23 11 -9 16 -12 13 -5 -5 7 0 9 12 6 13 -3 18 -10 14
-21 -4 -10 -2 -13 6 -8 6 4 19 2 27 -5 8 -6 17 -9 21 -5 3 3 26 -6 51 -20 25
-15 41 -21 37 -14 -9 15 1 10 47 -22 16 -11 33 -16 39 -12 8 5 9 3 4 -6 -6
-10 -3 -12 13 -8 12 4 22 2 22 -4 0 -5 5 -6 11 -2 6 3 24 -3 40 -15 15 -11 36
-21 45 -21 26 0 84 -23 84 -33 0 -4 4 -6 9 -2 5 3 12 1 16 -5 3 -5 15 -10 26
-10 10 0 19 -4 19 -8 0 -4 10 -9 23 -10 12 -2 31 -4 42 -6 11 -2 24 -4 28 -5
5 0 6 -5 3 -10 -3 -4 6 -6 19 -3 16 3 25 0 25 -8 0 -7 7 -10 15 -7 8 4 17 2
20 -4 4 -5 10 -7 15 -4 5 3 12 0 15 -6 4 -5 13 -8 20 -5 7 2 15 -1 18 -8 5
-12 84 -42 100 -38 4 1 10 -5 13 -13 3 -8 10 -12 15 -9 5 3 9 1 9 -4 0 -6 7
-13 16 -16 9 -3 12 -2 8 5 -3 6 3 5 15 -3 12 -7 21 -15 21 -18 0 -3 10 -6 23
-7 54 -5 89 -17 102 -36 8 -12 15 -18 15 -15 0 4 12 1 26 -7 15 -7 33 -11 40
-8 8 3 14 0 14 -6 0 -6 3 -10 8 -10 27 5 52 -2 46 -13 -4 -7 -3 -8 4 -4 6 4
26 -1 44 -11 18 -9 37 -16 42 -15 5 2 16 -4 26 -13 9 -8 19 -12 23 -9 3 3 12
2 19 -2 7 -5 20 -9 28 -10 33 -2 80 -17 80 -26 0 -5 4 -7 9 -3 5 3 12 1 16 -4
3 -6 13 -7 22 -4 11 4 14 3 9 -5 -5 -8 -2 -10 8 -6 9 3 16 1 16 -5 0 -6 7 -8
17 -4 12 5 14 3 8 -7 -5 -9 -4 -11 4 -6 14 9 71 -12 71 -25 0 -5 7 -5 17 -2
11 5 14 3 8 -6 -5 -10 -2 -11 14 -6 14 4 23 1 27 -9 3 -9 10 -13 15 -10 6 3
17 0 26 -8 14 -11 16 -11 8 2 -8 13 -7 13 10 0 10 -8 20 -14 22 -12 5 3 31 -1
53 -10 15 -6 63 -18 77 -19 5 0 15 -7 24 -15 9 -8 19 -11 22 -7 4 3 7 1 7 -5
0 -6 9 -9 20 -7 11 2 20 0 20 -5 0 -5 7 -7 15 -4 8 4 15 1 15 -5 0 -6 9 -11
19 -11 37 0 120 -23 115 -32 -3 -5 7 -6 22 -2 19 5 25 4 20 -4 -5 -8 -1 -10 9
-6 8 4 22 0 31 -7 17 -14 40 -19 92 -21 17 -1 32 -4 32 -8 0 -4 8 -7 18 -7 37
2 102 -15 96 -25 -4 -6 2 -8 15 -3 15 5 29 1 43 -12 14 -12 19 -13 13 -3 -7
12 -6 13 6 4 8 -6 30 -10 49 -9 19 1 39 0 45 -3 11 -7 35 -11 90 -15 22 -1 46
-6 53 -10 6 -5 16 -6 21 -3 10 7 71 -13 71 -23 0 -4 9 -8 20 -9 42 -4 50 -6
50 -12 0 -3 10 -6 22 -7 11 -1 24 -7 28 -14 5 -6 13 -8 20 -4 9 6 11 4 5 -5
-6 -10 -4 -12 8 -7 10 4 30 1 45 -5 15 -6 30 -11 35 -10 4 1 7 -3 7 -10 0 -6
3 -9 6 -5 4 3 22 0 41 -8 19 -8 31 -10 27 -4 -3 6 5 3 20 -6 14 -10 26 -14 26
-10 0 4 6 3 13 -1 6 -5 27 -9 45 -9 17 0 32 -3 32 -8 0 -4 4 -6 8 -3 5 3 33
-2 63 -10 30 -9 67 -15 82 -15 16 1 26 -2 23 -7 -5 -8 27 -13 87 -13 15 0 25
-4 22 -8 -2 -5 11 -7 31 -4 24 3 34 1 30 -5 -4 -7 3 -9 20 -6 14 3 23 1 20 -4
-2 -4 5 -9 17 -10 43 -3 87 -14 87 -23 0 -4 10 -6 22 -4 12 3 28 -1 37 -8 12
-10 13 -9 6 2 -6 10 -4 12 6 5 8 -4 28 -9 45 -11 17 -1 44 -8 60 -14 16 -7 49
-14 74 -15 92 -7 145 -16 155 -28 6 -7 19 -13 30 -14 28 -2 70 -9 70 -12 0 -1
35 -3 78 -4 42 -1 77 2 77 7 0 4 6 7 13 6 25 -3 38 1 32 11 -4 6 -3 10 2 9 14
-4 67 13 88 27 11 8 26 14 35 14 8 0 24 11 34 25 10 14 23 25 28 25 14 0 70
41 64 47 -3 3 4 14 14 26 11 11 17 25 13 30 -3 6 -1 7 4 4 15 -9 35 17 27 37
-3 9 0 18 8 21 7 3 15 18 16 33 1 15 8 32 15 37 6 6 13 15 14 22 1 6 5 26 9
45 4 18 6 43 5 56 0 13 3 21 7 18 4 -2 7 15 7 39 0 24 -3 41 -6 39 -4 -2 -6
11 -6 29 0 38 -6 60 -27 110 -8 20 -12 37 -8 37 4 0 -1 5 -10 11 -10 5 -15 16
-11 25 3 8 2 14 -3 12 -5 -2 -10 1 -11 5 -1 5 -17 22 -35 39 -18 16 -27 27
-20 23 6 -3 12 -4 12 -1 0 3 -17 15 -37 26 -81 45 -113 67 -106 73 3 4 -4 7
-16 7 -14 0 -20 4 -15 11 4 8 -1 9 -16 4 -17 -5 -21 -4 -15 5 6 9 4 11 -4 6
-7 -5 -20 -1 -29 7 -17 16 -20 17 -48 17 -9 0 -12 5 -8 12 5 7 2 9 -9 5 -9 -3
-18 0 -21 9 -3 8 -11 14 -18 13 -7 -1 -20 1 -28 4 -15 7 -55 15 -78 16 -7 1
-10 6 -7 11 3 6 -3 10 -14 10 -12 0 -21 5 -21 11 0 6 -7 9 -15 5 -8 -3 -15 -1
-15 5 0 6 -4 8 -9 5 -5 -3 -12 1 -15 10 -3 8 -10 13 -15 9 -14 -8 -92 26 -85
37 4 6 -2 7 -16 3 -17 -5 -21 -4 -15 5 6 9 4 11 -4 6 -7 -5 -19 0 -27 10 -9
11 -13 13 -9 4 4 -8 -2 -6 -12 5 -10 11 -30 21 -45 21 -14 1 -36 11 -49 23
-12 11 -26 18 -31 15 -5 -3 -17 1 -27 10 -10 9 -22 16 -27 14 -5 -1 -22 2 -39
9 -16 6 -39 15 -50 19 -11 4 -23 6 -27 6 -5 -1 -8 3 -8 9 0 5 -4 8 -9 5 -5 -3
-11 1 -15 9 -3 8 -12 12 -20 9 -8 -3 -17 0 -21 5 -3 6 -10 9 -15 6 -5 -3 -11
-1 -15 4 -3 6 -12 8 -20 4 -8 -3 -15 0 -15 7 0 7 -6 10 -14 7 -8 -3 -17 -3
-21 1 -4 4 -10 7 -13 7 -25 2 -51 18 -46 27 5 7 1 9 -9 5 -10 -3 -17 -2 -17 3
0 5 -11 7 -25 4 -15 -3 -25 0 -25 7 0 7 -3 9 -7 6 -3 -4 -12 -2 -19 3 -6 6
-16 10 -20 9 -5 -1 -23 4 -41 10 -18 7 -35 12 -39 11 -4 -1 -10 3 -13 8 -7 11
-113 62 -129 62 -6 0 -15 7 -20 15 -4 9 -18 17 -30 18 -12 0 -24 7 -27 15 -3
7 -9 11 -14 7 -5 -3 -12 -1 -16 5 -4 6 -11 8 -16 5 -5 -4 -9 -1 -9 5 0 6 -5 8
-10 5 -6 -3 -10 -1 -10 4 0 6 -6 10 -12 9 -7 -2 -12 2 -11 9 2 7 -6 10 -16 8
-10 -2 -29 6 -42 18 -23 22 -28 24 -61 26 -10 0 -26 10 -36 22 -11 11 -29 21
-41 22 -11 1 -21 5 -21 10 0 4 -5 5 -10 2 -5 -3 -10 -1 -10 4 0 6 -7 11 -16
11 -8 0 -13 3 -11 8 3 4 -6 8 -20 8 -13 1 -31 10 -39 20 -9 11 -12 12 -8 4 6
-12 3 -11 -12 2 -10 9 -26 18 -34 20 -8 2 -21 9 -28 16 -8 7 -18 10 -23 7 -5
-4 -9 -1 -9 4 0 6 -3 10 -7 10 -20 -3 -34 2 -28 11 4 6 -1 7 -11 3 -12 -4 -15
-3 -10 5 5 8 1 10 -10 5 -10 -4 -22 0 -30 11 -7 10 -18 15 -24 11 -6 -4 -18 1
-26 11 -9 11 -12 13 -9 6 4 -8 -12 -2 -35 13 -23 15 -39 22 -35 16 4 -8 -2 -8
-19 0 -14 7 -23 17 -19 22 4 6 0 8 -10 4 -9 -3 -19 -2 -22 3 -3 5 -13 6 -22 3
-11 -4 -14 -3 -9 5 6 10 -6 17 -18 10 -2 -2 -14 6 -27 17 -12 11 -19 14 -15 7
7 -11 4 -12 -13 -3 -11 7 -21 16 -21 22 0 6 -6 9 -12 6 -7 -2 -22 3 -32 12
-16 13 -18 13 -11 1 6 -10 1 -9 -13 3 -12 11 -26 16 -33 11 -7 -4 -10 -3 -6 2
3 6 -14 16 -39 23 -24 7 -44 17 -44 22 0 5 -7 5 -17 2 -11 -4 -14 -3 -9 5 5 8
2 10 -8 6 -9 -3 -16 -2 -16 4 0 5 -7 13 -16 16 -8 3 -12 2 -9 -4 3 -5 -7 -3
-22 5 -15 8 -33 15 -39 15 -7 0 -14 7 -18 15 -3 8 -12 12 -21 9 -8 -3 -15 -1
-15 5 0 6 -7 8 -17 4 -12 -5 -14 -3 -8 7 6 10 4 12 -8 7 -9 -3 -19 -2 -23 4
-3 6 -12 8 -20 5 -8 -3 -14 -1 -14 5 0 6 -4 8 -9 5 -5 -4 -11 -1 -13 4 -2 6
-17 13 -33 15 -17 2 -50 14 -75 28 -25 13 -62 27 -83 31 -21 4 -35 11 -32 16
3 6 -1 7 -9 4 -9 -3 -16 -1 -16 5 0 6 -3 10 -7 9 -15 -4 -53 13 -53 23 0 6 -5
7 -10 4 -6 -3 -17 1 -26 9 -8 9 -22 17 -30 17 -16 2 -33 5 -36 9 -2 1 -10 3
-19 5 -40 7 -59 17 -53 27 4 6 -1 8 -14 4 -11 -4 -23 -2 -27 4 -3 5 -15 10
-26 10 -10 0 -19 4 -19 10 0 5 -6 7 -13 4 -15 -5 -80 40 -70 50 4 4 -1 4 -10
0 -11 -4 -25 0 -37 11 -10 9 -23 14 -29 11 -5 -4 -13 -1 -17 5 -4 8 -3 9 4 5
7 -4 12 -5 12 -2 0 3 -10 10 -21 17 -17 9 -20 8 -13 -3 6 -10 5 -11 -7 -2 -8
5 -21 10 -29 9 -8 0 -21 6 -28 15 -12 13 -13 13 -7 0 4 -10 2 -9 -8 2 -8 10
-17 15 -20 11 -4 -3 -7 -1 -7 6 0 7 -7 10 -18 7 -10 -4 -27 1 -38 10 -10 8
-13 12 -5 8 9 -4 12 -3 8 4 -4 5 -16 8 -26 5 -13 -3 -29 4 -46 21 -16 16 -31
23 -42 19 -11 -4 -14 -3 -9 5 7 11 -6 17 -28 13 -4 -1 -14 4 -22 10 -8 6 -14
8 -14 3 0 -5 -7 0 -15 10 -8 11 -15 16 -15 12 0 -5 -7 -3 -15 4 -8 7 -15 9
-15 4 0 -5 -7 2 -16 14 -9 13 -24 22 -33 20 -10 -2 -26 4 -36 12 -10 8 -19 13
-19 11 -1 -3 -20 4 -43 14 -23 10 -40 22 -38 26 3 4 -2 10 -11 13 -10 4 -13 2
-9 -7 4 -6 0 -4 -8 5 -8 10 -17 15 -20 11 -4 -3 -7 -1 -7 6 0 8 -7 11 -15 7
-8 -3 -15 -1 -15 4 0 6 -6 10 -14 10 -7 0 -25 9 -40 21 -14 11 -30 17 -36 14
-5 -3 -10 -1 -10 4 0 6 -7 11 -16 11 -8 0 -13 4 -9 9 3 6 -5 8 -19 5 -13 -2
-29 2 -36 11 -7 8 -19 15 -27 15 -7 0 -16 6 -19 14 -3 8 -12 17 -20 20 -10 4
-13 2 -8 -7 4 -6 -3 -3 -15 8 -13 11 -25 19 -27 18 -10 -7 -25 -2 -20 5 3 5 0
9 -7 9 -24 1 -107 43 -107 54 0 6 -7 9 -15 5 -8 -3 -19 2 -24 12 -5 10 -20 18
-33 19 -12 1 -24 7 -26 13 -2 5 -8 8 -13 4 -5 -3 -9 0 -9 6 0 6 -4 8 -10 5 -5
-3 -10 -1 -10 5 0 6 -4 8 -10 5 -5 -3 -10 -2 -10 4 0 6 -6 8 -14 5 -8 -3 -17
0 -22 7 -5 8 -3 10 6 4 9 -5 11 -4 6 3 -4 7 -16 12 -27 12 -10 0 -19 5 -19 10
0 6 4 10 10 10 5 0 9 3 8 8 -3 14 14 42 23 36 5 -3 9 0 9 5 0 6 7 11 15 11 8
0 15 5 15 11 0 5 5 7 10 4 6 -3 10 1 10 9 0 17 11 25 41 31 12 2 27 12 34 22
17 23 205 30 275 9 27 -8 51 -12 54 -9 3 4 6 2 6 -4 0 -5 6 -10 13 -11 18 -1
71 -10 77 -13 3 -1 19 -3 35 -5 17 -1 48 -6 70 -10 22 -4 63 -7 92 -7 28 -1
50 -4 48 -7 -2 -3 135 -4 303 -2 405 4 462 6 462 13 0 3 12 5 27 3 15 -1 33 2
40 7 7 6 17 8 23 4 5 -3 16 -3 22 1 7 5 22 10 33 12 36 6 190 9 200 3 6 -3 55
-6 110 -6 55 0 111 -4 125 -9 14 -4 51 -8 82 -7 32 0 60 -3 62 -8 3 -4 21 -7
41 -6 19 2 35 0 35 -4 0 -3 30 -7 68 -8 120 -4 232 -15 232 -22 0 -4 29 -5 66
-4 36 2 63 -1 60 -5 -4 -7 35 -8 344 -10 252 -1 274 0 282 12 5 8 8 8 8 0 0
-12 22 -11 90 5 57 13 133 14 125 1 -3 -5 13 -7 41 -3 32 4 45 2 40 -5 -4 -7
3 -9 19 -6 14 2 25 1 25 -3 0 -5 19 -9 43 -10 74 -2 450 -12 502 -12 28 0 66
-1 85 -1 19 -1 58 0 85 1 28 2 98 3 158 3 59 1 107 3 107 6 0 3 18 5 40 4 23
0 43 3 46 7 2 4 53 8 112 7 59 0 115 3 124 7 9 4 22 4 28 0 5 -3 10 -2 10 3 0
9 94 28 114 23 4 -1 14 3 20 9 7 5 16 7 19 3 4 -3 7 0 7 7 0 7 3 10 7 7 3 -4
15 1 26 10 15 13 19 14 13 3 -5 -10 -3 -9 6 2 8 9 21 18 29 20 8 2 20 11 27
21 7 9 19 17 27 17 7 0 37 24 66 53 28 28 46 43 38 33 -9 -13 -10 -17 -2 -12
7 4 20 22 29 41 9 19 20 32 25 29 5 -3 9 4 9 15 0 11 5 23 10 26 6 4 8 10 5
15 -3 5 1 22 9 38 8 16 12 32 9 36 -4 3 -1 6 4 6 6 0 10 8 9 18 -2 9 1 20 7
23 12 9 16 129 4 129 -5 0 -7 7 -4 15 4 8 2 17 -3 20 -5 3 -7 14 -5 25 3 14
-1 17 -12 13 -12 -5 -15 -2 -10 10 3 9 2 17 -4 17 -6 0 -7 5 -4 10 3 6 2 10
-4 10 -5 0 -8 9 -6 20 2 11 0 20 -6 20 -5 0 -9 7 -9 16 0 10 -5 14 -16 10 -8
-3 -13 -2 -11 2 3 4 -5 16 -16 27 -11 12 -17 14 -13 5 4 -8 0 -6 -8 4 -9 11
-16 16 -16 12 0 -5 -7 -3 -15 4 -8 7 -12 17 -9 22 4 6 -1 8 -14 4 -14 -5 -21
-1 -25 14 -3 13 -10 18 -21 14 -9 -3 -23 -1 -31 6 -9 7 -30 14 -48 16 -53 6
-82 13 -85 23 -2 6 -10 7 -19 4 -12 -5 -14 -3 -8 7 6 10 3 12 -13 8 -12 -4
-22 -3 -22 2 0 4 -9 10 -20 13 -13 3 -18 1 -13 -6 3 -6 -9 -2 -28 9 -19 11
-47 20 -64 19 -30 -1 -57 14 -48 27 2 4 -3 5 -12 2 -8 -4 -21 -1 -29 5 -7 6
-21 8 -31 5 -12 -5 -23 -1 -31 11 -7 10 -20 15 -29 12 -8 -4 -15 -2 -15 4 0 6
-5 7 -11 4 -5 -4 -19 1 -29 10 -10 9 -23 14 -29 11 -12 -8 -101 15 -96 25 3 4
-4 9 -15 12 -12 3 -18 1 -14 -5 4 -7 0 -7 -12 -1 -11 5 -29 8 -41 8 -12 -1
-20 2 -17 6 5 8 -18 14 -40 10 -5 -1 -16 1 -25 5 -9 4 -19 8 -23 9 -5 2 -9 4
-10 5 -2 1 -14 3 -28 4 -14 1 -45 6 -70 11 -25 5 -49 9 -55 9 -5 1 -25 9 -44
19 -18 10 -30 13 -26 7 5 -9 2 -9 -11 -3 -11 5 -30 9 -44 8 -14 -1 -31 3 -37
8 -7 5 -13 6 -13 2 0 -4 -6 -3 -12 2 -7 5 -23 8 -35 7 -13 0 -23 3 -23 8 0 5
-4 7 -9 4 -7 -5 -63 10 -121 31 -8 3 -33 7 -55 8 -78 5 -139 15 -144 22 -3 5
-15 9 -26 11 -53 8 -92 12 -110 13 -10 0 -24 4 -31 9 -6 6 -23 11 -38 12 -14
1 -26 5 -26 9 0 3 -6 6 -12 7 -15 1 -77 9 -126 17 -19 2 -38 7 -43 10 -5 4
-17 8 -26 9 -10 2 -35 6 -56 10 -21 4 -35 11 -32 16 3 5 -3 9 -12 9 -20 1 -75
8 -83 11 -3 1 -9 2 -14 1 -5 -1 -17 6 -27 15 -10 9 -25 14 -34 10 -10 -3 -14
-2 -10 5 4 6 1 10 -6 8 -31 -4 -60 2 -55 10 4 5 -3 7 -14 4 -10 -3 -26 2 -34
10 -9 8 -25 13 -36 10 -11 -3 -26 0 -33 6 -8 6 -17 8 -20 4 -4 -3 -7 -2 -7 4
0 6 -13 9 -30 8 -16 -1 -30 2 -30 7 0 5 -4 6 -10 3 -5 -3 -10 -2 -10 3 0 5
-10 9 -22 9 -54 -1 -79 4 -74 12 4 5 -3 7 -14 4 -10 -3 -26 2 -35 10 -8 9 -25
14 -37 12 -11 -3 -26 -1 -32 3 -6 4 -23 8 -38 9 -57 5 -68 7 -68 13 0 4 -19 7
-42 8 -24 1 -50 3 -58 5 -8 2 -32 7 -52 11 -21 5 -35 12 -32 17 3 5 -10 7 -30
5 -20 -2 -38 0 -42 5 -3 5 -10 7 -15 4 -5 -4 -9 -2 -9 4 0 5 -16 8 -35 5 -19
-2 -35 0 -35 5 0 5 -12 8 -27 6 -16 -2 -32 0 -37 3 -5 3 -25 6 -45 8 -19 2
-49 5 -66 8 -16 3 -67 8 -112 12 -46 3 -83 10 -83 14 0 3 -13 5 -30 2 -16 -2
-30 0 -30 4 0 5 -21 10 -48 11 -60 3 -72 5 -72 12 0 3 -21 6 -47 5 -27 -1 -50
2 -53 6 -3 4 -43 11 -90 14 -46 4 -87 9 -90 11 -5 3 -89 16 -117 18 -7 0 -13
3 -13 6 0 3 -19 7 -42 9 -23 1 -47 7 -52 11 -6 5 -19 7 -28 6 -10 -2 -20 0
-23 5 -3 4 -21 6 -40 4 -20 -1 -34 0 -31 4 2 4 -15 8 -37 9 -34 1 -179 17
-234 25 -7 1 -13 5 -13 10 0 5 -11 6 -24 4 -13 -2 -27 -1 -31 2 -3 4 -35 5
-69 4 -47 -2 -65 0 -69 11 -3 9 -18 13 -44 11 -21 -1 -42 1 -47 4 -5 3 -66 6
-135 6 -120 2 -156 8 -163 31 -2 5 -6 9 -10 8 -8 -3 -12 28 -9 55 1 8 -7 16
-18 19 -13 3 -18 10 -14 21 4 10 2 13 -5 8 -12 -7 -38 31 -34 51 2 7 -7 17
-18 23 -12 7 -19 18 -16 26 3 7 2 13 -2 11 -4 -1 -7 2 -7 6 0 5 -8 13 -18 18
-9 6 -14 15 -11 21 4 6 0 14 -7 19 -8 4 -14 14 -14 21 -1 7 -6 12 -13 11 -7
-2 -11 0 -11 5 3 20 -2 32 -13 26 -7 -4 -8 -3 -4 5 4 7 -2 20 -16 31 -13 11
-19 19 -13 20 5 0 -1 7 -13 16 -13 9 -21 22 -18 30 3 8 1 14 -4 14 -6 0 -10 7
-10 16 0 8 -4 12 -10 9 -5 -3 -10 0 -10 8 0 7 -9 23 -20 35 -12 12 -17 22 -13
22 4 0 -3 6 -16 13 -13 6 -29 21 -35 32 -6 10 -20 27 -31 37 -11 9 -16 17 -12
18 4 0 -3 11 -17 23 -14 13 -23 26 -21 29 3 3 -6 13 -20 22 -14 9 -23 21 -20
26 4 6 2 10 -4 10 -5 0 -13 9 -16 20 -4 11 -11 18 -16 15 -8 -6 -13 9 -10 29
1 5 -5 6 -14 2 -9 -3 -13 -2 -10 4 3 6 1 10 -6 10 -7 0 -9 3 -6 7 4 3 -2 13
-13 20 -11 8 -18 19 -15 24 4 5 1 9 -6 9 -7 0 -9 3 -6 7 4 3 -2 13 -14 21 -13
9 -19 21 -16 33 3 11 1 19 -5 19 -6 0 -8 11 -4 24 3 14 1 28 -4 31 -6 4 -7 11
-4 17 4 7 2 8 -4 4 -7 -4 -12 -1 -12 8 0 8 -9 20 -20 26 -11 6 -18 15 -15 21
4 5 -1 9 -10 9 -9 0 -14 3 -12 8 9 14 -13 53 -25 46 -8 -5 -9 -2 -5 10 6 14 3
17 -8 12 -9 -3 -13 -2 -10 4 3 6 1 10 -5 10 -6 0 -9 4 -6 9 3 5 -2 15 -11 22
-12 10 -14 10 -9 2 4 -7 5 -13 2 -13 -2 0 -15 20 -27 45 -12 24 -25 43 -28 41
-3 -2 -12 2 -19 10 -7 8 -10 14 -6 14 4 0 -3 12 -17 27 -19 21 -20 24 -4 14
13 -9 11 -5 -5 11 -32 31 -58 73 -38 63 7 -4 2 2 -11 13 -13 10 -21 24 -17 30
3 5 -1 13 -10 16 -8 3 -12 10 -9 16 3 5 2 10 -4 10 -6 0 -7 7 -4 17 4 11 3 14
-5 9 -7 -4 -12 -1 -12 8 0 8 -7 19 -16 24 -9 5 -15 12 -15 15 3 17 -12 57 -21
57 -5 0 -7 4 -3 9 3 5 1 12 -5 16 -6 4 -8 11 -5 16 4 5 1 9 -6 9 -7 0 -10 3
-6 6 3 4 -1 13 -9 21 -8 8 -12 19 -9 24 4 5 1 9 -5 9 -6 0 -8 5 -5 10 3 6 1
10 -5 10 -7 0 -9 7 -6 16 3 9 2 12 -5 9 -6 -4 -10 -1 -8 6 3 28 -1 39 -16 39
-13 0 -17 15 -14 45 0 3 -11 20 -25 36 -15 17 -26 39 -26 50 0 11 -4 17 -10
14 -5 -3 -10 1 -10 10 0 9 -7 27 -16 40 -9 13 -13 28 -10 33 3 5 -10 27 -29
49 -19 22 -31 43 -28 47 3 3 -1 6 -10 6 -9 0 -17 6 -17 14 0 7 -7 19 -15 26
-8 7 -13 16 -10 20 3 5 -4 11 -15 15 -22 7 -63 59 -53 69 3 3 -4 6 -16 6 -12
0 -19 4 -16 10 3 6 1 10 -6 10 -7 0 -9 3 -6 7 4 4 -7 13 -24 20 -20 8 -29 18
-26 27 3 8 -1 17 -9 20 -10 4 -13 1 -9 -7 4 -6 0 -4 -8 6 -8 9 -28 17 -46 17
-17 0 -31 4 -31 9 0 6 -9 8 -20 6 -11 -2 -22 1 -25 6 -4 5 -11 7 -16 3 -5 -3
-15 -1 -22 4 -7 5 -22 8 -34 7 -13 -1 -23 2 -23 6 0 4 -16 5 -35 2 -20 -3 -35
-1 -35 4 0 6 -12 9 -27 7 -15 -1 -33 2 -40 7 -6 6 -92 12 -189 15 -116 2 -182
8 -188 15 -8 9 -7 10 4 4 8 -5 12 -5 8 -1 -8 9 -608 14 -602 5z m846 -1993 c7
4 10 4 6 0 -3 -4 2 -16 13 -27 11 -11 17 -24 14 -29 -4 -6 -1 -10 5 -10 7 0
10 -6 7 -14 -3 -7 0 -19 6 -25 16 -16 16 -58 0 -58 -7 0 -13 4 -13 9 0 4 -7 8
-16 8 -8 0 -13 4 -10 9 3 5 -1 12 -10 15 -8 3 -12 2 -9 -4 3 -5 -8 -2 -24 8
-17 9 -31 21 -31 25 0 5 -4 5 -10 2 -5 -3 -10 -2 -10 3 0 5 -14 12 -31 16 -17
3 -28 10 -24 16 4 6 -1 7 -11 3 -13 -5 -15 -3 -9 7 6 9 4 11 -5 5 -7 -4 -16
-2 -21 6 -13 20 -11 29 6 29 8 0 15 5 15 11 0 5 4 8 10 4 5 -3 24 8 42 24 l33
29 32 -35 c20 -22 37 -32 45 -27z"/>
<path d="M4159 8073 c-13 -16 -12 -17 4 -4 9 7 17 15 17 17 0 8 -8 3 -21 -13z"/>
<path d="M11734 5648 l-19 -23 23 19 c21 18 27 26 19 26 -2 0 -12 -10 -23 -22z"/>
<path d="M436 15 c-4 -12 2 -15 32 -14 21 1 29 3 17 6 -11 3 -25 9 -31 14 -8
6 -14 4 -18 -6z"/>
</g>
</svg>
